<svg viewBox="0 0 24 24" fill="currentColor" xmlns="http://www.w3.org/2000/svg" xmlns:xlink="http://www.w3.org/1999/xlink">
  <path d="M19.8271 9.1182c0-3.6413-2.3858-4.7079-2.3858-4.7079-1.2026-0.5522-3.2679-0.7847-5.4137-0.8023l-0.0529 0C9.8289 3.6256 7.7653 3.8581 6.5619 4.4103c0 0-2.3858 1.0674-2.3858 4.7079 0 0.8333-0.016 1.8303 0.01 2.8876 0.0865 3.5608 0.6529 7.0703 3.9451 7.9414 1.5181 0.402 2.8214 0.4859 3.8704 0.428 1.9033-0.1058 2.9716-0.6789 2.9716-0.6789l-0.0629-1.3814c0 0-1.3604 0.4289-2.8877 0.3768-1.5139-0.052-3.1109-0.1628-3.356-2.0216a3.7957 3.7957 0 0 1-0.0336-0.5211c0 0 1.4853 0.3633 3.3685 0.4498 1.1514 0.0528 2.2306-0.0672 3.3274-0.1981 2.103-0.2509 3.9342-1.5466 4.1641-2.7307 0.3642-1.8656 0.334-4.5518 0.334-4.5518zM17.0133 13.8093l-1.7464 0 0-4.2791c0-0.9021-0.3793-1.3595-1.1388-1.3595-0.8392 0-1.2596 0.543-1.2596 1.6171l0 2.3422-1.7363 0 0-2.3422c0-1.0741-0.4205-1.6171-1.2605-1.6171-0.7595 0-1.1388 0.4582-1.1388 1.3595l0 4.2791-1.7464 0 0-4.4083c0-0.9013 0.2291-1.6172 0.6907-2.1467 0.475-0.5295 1.0968-0.8014 1.8697-0.8014 0.8938 0 1.571 0.3432 2.0183 1.0305l0.4347 0.7293 0.4356-0.7293c0.4473-0.6873 1.1245-1.0305 2.0182-1.0305 0.7721 0 1.3948 0.2719 1.8698 0.8014 0.4607 0.5295 0.6898 1.2454 0.6898 2.1467z" />
</svg>